<svg width="148" height="18" viewBox="0 0 148 18" fill="none" xmlns="http://www.w3.org/2000/svg">
<path fill-rule="evenodd" clip-rule="evenodd" d="M8.66198 1.5604C9.63748 1.96105 10.4998 2.5359 11.2488 3.28495C11.9979 4.034 12.5727 4.89628 12.9734 5.87179C13.3827 6.8473 13.5874 7.86635 13.5874 8.92896C13.5874 10.009 13.374 11.0411 12.9472 12.0253C12.5292 13.0095 11.963 13.8588 11.2488 14.573C10.5433 15.2785 9.69845 15.8446 8.71424 16.2714C7.73002 16.6895 6.6979 16.8985 5.61787 16.8985H0V0.94635H5.61787C6.68048 0.94635 7.69518 1.15103 8.66198 1.5604ZM26.3643 9.8435L28.925 16.8985H25.5281L23.2287 10.6013H18.6691V16.8985H15.2984V0.94635H23.7513C25.0839 0.94635 26.2206 1.41668 27.1612 2.35735C28.1106 3.30673 28.5853 4.44772 28.5853 5.78033C28.5853 6.59906 28.385 7.36989 27.9843 8.09281C27.5924 8.81573 27.0524 9.39929 26.3643 9.8435ZM47.3851 16.8985L39.0105 1.19458L30.6229 16.8985H34.5685L38.9974 8.78524L43.2958 16.8985H47.3851ZM61.7428 4.31707H52.4798V7.23053H61.7428V10.6013H52.4798V16.8985H49.1091V0.94635H61.7428V4.31707ZM78.4914 0.94635H63.4407V4.31707H69.2807V16.8985H72.6514V4.31707H78.4914V0.94635ZM92.836 4.31707H83.5731V7.23053H92.836V10.6013H83.5731V16.8985H80.2023V0.94635H92.836V4.31707ZM92.3004 7.76619H83.0374V3.79448H92.3004V1.48201L80.738 1.46894V16.3759H83.0374V10.0787H92.3004V7.76619ZM107.168 13.5278H97.9046V0.94635H94.5339V16.8985H107.168V13.5278ZM106.632 14.0634V16.3759H95.0696V1.46894H97.369V14.0634H106.632ZM143.448 0.94635H147.08L140.534 17.3558L135.857 5.66275L131.193 17.3558L124.634 0.94635H128.266L131.193 8.82444L134.106 0.94635H137.608L140.534 8.82444L143.448 0.94635ZM135.857 4.22562L140.534 15.9186L146.296 1.46894H143.826L140.534 10.353L137.242 1.46894H134.485L131.193 10.353L127.9 1.46894H125.418L131.193 15.9186L135.857 4.22562ZM8.85797 12.1826C7.96085 13.0797 6.88083 13.5283 5.61789 13.5283H3.37074V4.31756H5.61789C6.88083 4.31756 7.96085 4.77047 8.85797 5.6763C9.7638 6.57342 10.2167 7.6578 10.2167 8.92944C10.2167 10.2011 9.7638 11.2855 8.85797 12.1826ZM23.7514 7.24407C24.152 7.24407 24.4961 7.10036 24.7835 6.81293C25.0709 6.52551 25.2147 6.18147 25.2147 5.78081C25.2147 5.38016 25.0709 5.03612 24.7835 4.74869C24.4961 4.46126 24.152 4.31755 23.7514 4.31755H18.6692V7.24407H23.7514Z" fill="#F7F7F8"/>
<circle cx="116.514" cy="9" r="8.4" stroke="#F7F7F8" stroke-width="1.2"/>
<path d="M120.671 11.087V7.11775C120.671 5.2158 118.774 5.22101 118.774 5.22101H118.142V3.95639L116.245 5.85353L118.142 7.75026V6.48564C118.142 6.48564 118.406 6.48564 118.774 6.48564C119.331 6.48564 119.406 7.11775 119.406 7.11775V11.087C119.029 11.3061 118.774 11.7083 118.774 12.1762C118.774 12.8742 119.341 13.4409 120.039 13.4409C120.737 13.4409 121.303 12.8738 121.303 12.1762C121.303 11.7095 121.047 11.3061 120.671 11.087ZM120.039 12.8088C119.69 12.8088 119.406 12.5258 119.406 12.1766C119.406 11.8279 119.689 11.5445 120.039 11.5445C120.388 11.5445 120.671 11.8279 120.671 12.1766C120.671 12.5262 120.388 12.8088 120.039 12.8088ZM113.083 7.0744V11.0433C113.083 12.9452 114.98 12.9404 114.98 12.9404H115.612V14.205L117.509 12.3083L115.612 10.4111V11.6758C115.612 11.6758 115.349 11.6758 114.98 11.6758C114.423 11.6758 114.348 11.0437 114.348 11.0437V7.07481C114.725 6.85527 114.98 6.45313 114.98 5.98517C114.98 5.28724 114.413 4.72054 113.716 4.72054C113.018 4.72054 112.451 5.28724 112.451 5.98517C112.451 6.45233 112.706 6.85487 113.083 7.0744ZM113.716 6.64377C113.367 6.64377 113.083 6.36122 113.083 6.01166C113.083 5.66289 113.367 5.37954 113.716 5.37954C114.065 5.37954 114.348 5.66289 114.348 6.01166C114.348 6.36162 114.065 6.64377 113.716 6.64377Z" fill="#F7F7F8"/>
</svg>
